<?xml version="1.0" standalone="no"?><!DOCTYPE svg PUBLIC "-//W3C//DTD SVG 1.1//EN" "http://www.w3.org/Graphics/SVG/1.1/DTD/svg11.dtd"><svg t="1540458472478" class="icon" style="" viewBox="0 0 1024 1024" version="1.1" xmlns="http://www.w3.org/2000/svg" p-id="18438" xmlns:xlink="http://www.w3.org/1999/xlink" width="200" height="200"><defs><style type="text/css"></style></defs><path d="M0 0" p-id="18439" fill="#1296db"></path><path d="M512 0C229.224 0 0 229.224 0 512s229.224 512 512 512 512-229.224 512-512S794.776 0 512 0z m319.36 512.64A63.36 63.36 0 0 1 768 576H576v192a63.36 63.36 0 0 1-63.36 63.36h-1.28A63.36 63.36 0 0 1 448 768V576H256a63.36 63.36 0 0 1-63.36-63.36v-1.28A63.36 63.36 0 0 1 256 448h192V256a63.36 63.36 0 0 1 63.36-63.36h1.28A63.36 63.36 0 0 1 576 256v192h192a63.36 63.36 0 0 1 63.36 63.36v1.28z" p-id="18440" fill="#1296db"></path></svg>