<?xml version="1.0" standalone="no"?><!DOCTYPE svg PUBLIC "-//W3C//DTD SVG 1.1//EN" "http://www.w3.org/Graphics/SVG/1.1/DTD/svg11.dtd"><svg t="1540261859810" class="icon" style="" viewBox="0 0 1024 1024" version="1.1" xmlns="http://www.w3.org/2000/svg" p-id="3229" xmlns:xlink="http://www.w3.org/1999/xlink" width="200" height="200"><defs><style type="text/css"></style></defs><path d="M1015.68 519.978667L512 0.213333 8.832 518.272a28.416 28.416 0 0 0-1.024 38.101333c9.258667 10.794667 24.746667 11.946667 34.474667 1.109334L512 74.154667l469.717333 485.034666a22.272 22.272 0 0 0 33.962667-1.109333 27.861333 27.861333 0 0 0 0-38.101333z m-153.472 10.794666c-13.397333 0-24.746667 12.501333-24.746667 27.306667v412.8h-195.157333v-287.701333H381.696v286.592H186.496v-412.842667c0-14.805333-11.306667-27.306667-24.746667-27.306667-13.354667 0-24.661333 12.501333-24.661333 27.306667v466.858667h293.034667v-287.146667h162.730666v286.549333h293.034667V556.928c0.512-14.208-10.282667-26.154667-23.68-26.154667z" p-id="3230" fill="#bfbfbf"></path></svg>