<?xml version="1.0" standalone="no"?><!DOCTYPE svg PUBLIC "-//W3C//DTD SVG 1.1//EN" "http://www.w3.org/Graphics/SVG/1.1/DTD/svg11.dtd"><svg t="1540363969033" class="icon" style="" viewBox="0 0 1024 1024" version="1.1" xmlns="http://www.w3.org/2000/svg" p-id="14015" xmlns:xlink="http://www.w3.org/1999/xlink" width="200" height="200"><defs><style type="text/css"></style></defs><path d="M596.591304 937.182609c-4.452174 0-8.904348-2.226087-13.356521-4.452174L215.930435 719.026087H48.973913c-15.582609 0-26.713043-11.130435-26.713043-26.713044V345.043478c0-15.582609 11.130435-26.713043 26.713043-26.713043h166.956522l367.304348-215.930435c4.452174-2.226087 8.904348-4.452174 13.356521-4.452174 15.582609 0 26.713043 13.356522 26.713044 26.713044v785.808695c0 15.582609-11.130435 26.713043-26.713044 26.713044zM66.782609 674.504348h160.278261L578.782609 879.304348V155.826087l-351.721739 207.026087H66.782609v311.652174zM1019.547826 540.93913h-213.704348c-2.226087 0-4.452174-2.226087-4.452174-4.452173v-35.617392c0-2.226087 2.226087-4.452174 4.452174-4.452174h213.704348c2.226087 0 4.452174 2.226087 4.452174 4.452174v35.617392c0 2.226087-2.226087 4.452174-4.452174 4.452173zM801.391304 311.652174l-24.486956-24.486957c-2.226087-2.226087-2.226087-4.452174 0-6.67826l151.373913-151.373914c2.226087-2.226087 4.452174-2.226087 6.678261 0L959.443478 155.826087c2.226087 2.226087 2.226087 4.452174 0 6.678261L808.069565 311.652174c-2.226087 2.226087-4.452174 2.226087-6.678261 0zM928.278261 908.243478L776.904348 756.869565c-2.226087-2.226087-2.226087-4.452174 0-6.678261l24.486956-24.486956c2.226087-2.226087 4.452174-2.226087 6.678261 0l151.373913 151.373913c2.226087 2.226087 2.226087 4.452174 0 6.678261L934.956522 908.243478h-6.678261z" p-id="14016" fill="#ffffff"></path></svg>