<?xml version="1.0" standalone="no"?><!DOCTYPE svg PUBLIC "-//W3C//DTD SVG 1.1//EN" "http://www.w3.org/Graphics/SVG/1.1/DTD/svg11.dtd"><svg t="1540276162150" class="icon" style="" viewBox="0 0 1024 1024" version="1.1" xmlns="http://www.w3.org/2000/svg" p-id="7189" xmlns:xlink="http://www.w3.org/1999/xlink" width="200" height="200"><defs><style type="text/css"></style></defs><path d="M512 73.14c-192 0-347.43 155.27-347.43 348.86 0 241.12 248.69 462.15 325.49 520.6 12.8 11 31.09 11 45.71 0 76.8-60.28 323.66-279.48 323.66-520.6C859.43 228.41 704 73.14 512 73.14z m0 493.2c-80.46 0-146.29-65.76-146.29-146.13S431.54 274.08 512 274.08s146.29 65.76 146.29 146.13S592.46 566.34 512 566.34z" fill="#ffffff" p-id="7190"></path><path d="M512 73.14c-192 0-347.43 155.27-347.43 348.86 0 241.12 248.69 462.15 325.49 520.6 12.8 11 31.09 11 45.71 0 76.8-60.28 323.66-279.48 323.66-520.6C859.43 228.41 704 73.14 512 73.14z m0 493.2c-80.46 0-146.29-65.76-146.29-146.13S431.54 274.08 512 274.08s146.29 65.76 146.29 146.13S592.46 566.34 512 566.34z" fill="#ffffff" p-id="7191"></path></svg>