<?xml version="1.0" standalone="no"?><!DOCTYPE svg PUBLIC "-//W3C//DTD SVG 1.1//EN" "http://www.w3.org/Graphics/SVG/1.1/DTD/svg11.dtd"><svg t="1540274598061" class="icon" style="" viewBox="0 0 1024 1024" version="1.1" xmlns="http://www.w3.org/2000/svg" p-id="5317" xmlns:xlink="http://www.w3.org/1999/xlink" width="200" height="200"><defs><style type="text/css"></style></defs><path d="M287.789007 654.505621l-61.504796 0c-15.996322 0-28.943193-12.942777-28.943193-28.943193 0-15.994276 12.945847-28.943193 28.943193-28.943193l61.504796 0c15.999392 0 28.943193 12.948917 28.943193 28.943193C316.7322 641.561821 303.789423 654.505621 287.789007 654.505621z" p-id="5318" fill="#eca42c"></path><path d="M458.735377 825.451992c-7.404644 0-14.810311-2.822278-20.463054-8.478092L267.326976 646.027529c-11.30651-11.305487-11.30651-29.617551 0-40.930201 11.305487-11.301394 29.620621-11.301394 40.927131 0l170.945347 170.94637c11.305487 11.31265 11.305487 29.623691 0 40.930201C473.546711 822.629713 466.143091 825.451992 458.735377 825.451992z" p-id="5319" fill="#eca42c"></path><path d="M461.447139 820.928978c-7.40362 0-14.809287-2.822278-20.462031-8.478092-11.305487-11.30651-11.305487-29.618575 0-40.929178l337.369727-337.367681c11.30651-11.305487 29.620621-11.305487 40.927131 0 11.305487 11.305487 11.305487 29.621645 0 40.928155L481.91224 812.450886C476.259496 818.1067 468.856899 820.928978 461.447139 820.928978z" p-id="5320" fill="#eca42c"></path><path d="M452.008162 213.238592" p-id="5321" fill="#eca42c"></path><path d="M575.80877 213.238592" p-id="5322" fill="#eca42c"></path><path d="M340.248799 213.238592l0 33.012881 63.427588 0c-8.423857-9.949606-15.150048-21.086248-20.351514-33.012881L340.248799 213.238592z" p-id="5323" fill="#eca42c"></path><path d="M372.415406 177.511903l-32.166607 0 0 35.726689 43.077098 0C378.350582 202.046692 374.67589 190.059684 372.415406 177.511903z" p-id="5324" fill="#eca42c"></path><path d="M624.142591 246.251474l63.424518 0 0-33.012881L644.492058 213.238592C639.29264 225.165226 632.565425 236.301867 624.142591 246.251474z" p-id="5325" fill="#eca42c"></path><path d="M687.567109 213.238592l0-35.726689-32.163537 0c-2.261507 12.547781-5.937223 24.534789-10.911514 35.726689L687.567109 213.238592z" p-id="5326" fill="#eca42c"></path><path d="M716.510302 252.015757 589.208964 252.015757c-22.331611 13.796214-47.146786 23.914666-75.302033 23.914666-28.149107 0-52.965306-10.117428-75.293847-23.914666L311.305607 252.015757l0-38.778188-28.943193 0 0 38.778188c0 16.000416 12.945847 28.943193 28.943193 28.943193l405.204695 0c15.999392 0 28.943193-12.942777 28.943193-28.943193l0-38.778188-28.943193 0L716.510302 252.015757z" p-id="5327" fill="#eca42c"></path><path d="M311.305607 148.56871l56.870242 0c0.340761-10.175757 3.618411-19.389606 5.878894-28.944216l-62.749136 0c-15.997346 0-28.943193 12.945847-28.943193 28.944216l0 6.783497 28.943193 0L311.305607 148.56871z" p-id="5328" fill="#eca42c"></path><path d="M716.510302 148.56871l0 6.783497 28.943193 0 0-6.783497c0-15.997346-12.9438-28.944216-28.943193-28.944216l-62.746066 0c2.261507 9.55461 5.541203 18.767436 5.877871 28.944216L716.510302 148.56871z" p-id="5329" fill="#eca42c"></path><path d="M282.362414 155.352207l28.943193 0 0 57.886385-28.943193 0 0-57.886385Z" p-id="5330" fill="#eca42c"></path><path d="M716.510302 155.352207l28.943193 0 0 57.886385-28.943193 0 0-57.886385Z" p-id="5331" fill="#eca42c"></path><path d="M438.613084 252.015757c-13.171997-8.140401-24.987091 5.936199-34.936697-5.764284l-63.427588 0 0-33.012881-28.943193 0 0 38.778188L438.613084 252.016781z" p-id="5332" fill="#eca42c"></path><path d="M367.382786 152.581094c0-1.413186 0.793062-2.599198 0.793062-4.012384l-56.870242 0 0 6.783497 56.644091 0C367.835088 154.390299 367.382786 153.543002 367.382786 152.581094z" p-id="5333" fill="#eca42c"></path><path d="M340.248799 177.511903l32.166607 0c-1.299599-7.461949-3.844561-14.528901-4.465708-22.159696l-56.644091 0 0 57.886385 28.943193 0L340.248799 177.511903z" p-id="5334" fill="#eca42c"></path><path d="M659.868257 155.352207l56.643068 0 0-6.783497-56.868195 0c0 1.413186 0.791016 2.599198 0.791016 4.012384C660.434146 153.543002 659.979798 154.390299 659.868257 155.352207z" p-id="5335" fill="#eca42c"></path><path d="M687.567109 246.251474l-63.424518 0c-9.949606 11.701506-21.765723-2.375094-34.933627 5.764284l127.301338 0 0-38.778188-28.943193 0L687.567109 246.251474z" p-id="5336" fill="#eca42c"></path><path d="M655.404596 177.511903l32.163537 0 0 35.726689 28.943193 0 0-57.886385-56.643068 0C659.248134 162.983002 656.703171 170.049954 655.404596 177.511903z" p-id="5337" fill="#eca42c"></path><path d="M513.906931 63.942311c37.199227 0 68.855204 23.121604 81.969896 55.682183l57.887408 0C638.388037 55.181787 582.988286 6.055926 513.906931 6.055926c-69.076238 0-124.475989 49.124837-139.852188 113.568569l57.886385 0C445.05582 87.063915 476.712821 63.942311 513.906931 63.942311z" p-id="5338" fill="#eca42c"></path><path d="M644.492058 213.238592l-68.683289 0c-15.715937 16.733103-36.97103 27.981285-61.901839 27.981285-24.926716 0-46.181809-11.249205-61.898769-27.981285l-68.683289 0c5.201465 11.926634 11.926634 23.064298 20.351514 33.012881l220.465181 0C632.565425 236.301867 639.29264 225.165226 644.492058 213.238592z" p-id="5339" fill="#eca42c"></path><path d="M575.80877 213.238592l68.683289 0c4.974291-11.1919 8.650007-23.177885 10.911514-35.726689l-57.886385 0C593.38917 191.305047 585.361333 203.062835 575.80877 213.238592z" p-id="5340" fill="#eca42c"></path><path d="M452.008162 213.238592c-9.553587-10.175757-17.579377-21.933545-21.707394-35.726689L372.415406 177.511903c2.260483 12.547781 5.936199 24.534789 10.910491 35.726689L452.008162 213.238592z" p-id="5341" fill="#eca42c"></path><path d="M601.755722 148.56871l57.886385 0c-0.336668-10.175757-3.616364-19.389606-5.877871-28.944216l-57.887408 0C599.495238 128.612193 601.248162 138.39193 601.755722 148.56871z" p-id="5342" fill="#eca42c"></path><path d="M513.906931 275.930423c28.155247 0 52.970422-10.117428 75.302033-23.914666L438.613084 252.015757C460.941626 265.812995 485.757824 275.930423 513.906931 275.930423z" p-id="5343" fill="#eca42c"></path><path d="M426.062234 148.56871c0.509606-10.175757 2.260483-19.955494 5.878894-28.944216l-57.886385 0c-2.260483 9.55461-5.539156 18.767436-5.878894 28.944216L426.062234 148.56871z" p-id="5344" fill="#eca42c"></path><path d="M403.676387 246.251474c9.948583 11.701506 21.7647-2.375094 34.936697 5.764284l150.59588 0c13.167904-8.140401 24.984021 5.936199 34.933627-5.764284L403.676387 246.251474z" p-id="5345" fill="#eca42c"></path><path d="M367.949698 155.352207l57.886385 0c-0.057305-0.961908-0.566912-1.809205-0.566912-2.771113 0-1.413186 0.735757-2.599198 0.793062-4.012384l-57.886385 0c0 1.413186-0.793062 2.599198-0.793062 4.012384C367.382786 153.543002 367.835088 154.390299 367.949698 155.352207z" p-id="5346" fill="#eca42c"></path><path d="M425.836083 155.352207l-57.886385 0c0.621147 7.630794 3.166109 14.697747 4.465708 22.159696l57.886385 0C428.154895 170.332387 426.288384 163.040307 425.836083 155.352207z" p-id="5347" fill="#eca42c"></path><path d="M601.982896 155.352207l57.884338 0c0.11154-0.961908 0.565888-1.809205 0.565888-2.771113 0-1.413186-0.791016-2.599198-0.791016-4.012384l-57.886385 0c0.059352 1.413186 0.789992 2.599198 0.789992 4.012384C602.545714 153.543002 602.040201 154.390299 601.982896 155.352207z" p-id="5348" fill="#eca42c"></path><path d="M655.404596 177.511903c1.299599-7.461949 3.844561-14.528901 4.463662-22.159696l-57.884338 0c-0.453325 7.688099-2.319835 14.981203-4.465708 22.159696L655.404596 177.511903z" p-id="5349" fill="#eca42c"></path><path d="M803.964096 155.352207l-12.551874 0 0 57.886385L803.964096 213.238592c47.87845 0 86.829578 38.950104 86.829578 86.829578l0 577.845661c0 47.879474-38.950104 86.829578-86.829578 86.829578L220.237495 964.743408c-47.880497 0-86.830601-38.950104-86.830601-86.829578L133.406894 300.06817c0-47.880497 38.950104-86.829578 86.830601-86.829578l16.506952 0 0-57.886385-16.506952 0c-79.81993 0-144.715963 64.896032-144.715963 144.715963l0 577.845661c0 79.823 64.896032 144.715963 144.715963 144.715963L803.964096 1022.629793c79.81993 0 144.715963-64.892963 144.715963-144.715963L948.680059 300.06817C948.680059 220.24824 883.784026 155.352207 803.964096 155.352207z" p-id="5350" fill="#eca42c"></path></svg>