<?xml version="1.0" standalone="no"?><!DOCTYPE svg PUBLIC "-//W3C//DTD SVG 1.1//EN" "http://www.w3.org/Graphics/SVG/1.1/DTD/svg11.dtd"><svg t="1540806017941" class="icon" style="" viewBox="0 0 1024 1024" version="1.1" xmlns="http://www.w3.org/2000/svg" p-id="6796" xmlns:xlink="http://www.w3.org/1999/xlink" width="200" height="200"><defs><style type="text/css"></style></defs><path d="M912 83.2C806.4 57.6 560 0 512 0S217.6 57.6 112 83.2c-28.8 6.4-48 32-48 64V512c0 368 409.6 505.6 428.8 512h19.2c6.4 0 12.8 0 19.2-3.2 16-6.4 428.8-140.8 428.8-512V147.2c0-32-19.2-57.6-48-64zM896 508.8C896 835.2 512 960 512 960S128 835.2 128 508.8V147.2S464 64 512 64s384 83.2 384 83.2v361.6z" p-id="6797"></path><path d="M275.2 428.8c-12.8-12.8-32-12.8-44.8 0-12.8 12.8-12.8 32 0 44.8l192 192c6.4 6.4 16 9.6 22.4 9.6s16-3.2 22.4-9.6l352-352c12.8-12.8 12.8-32 0-44.8-12.8-12.8-32-12.8-44.8 0L444.8 598.4l-169.6-169.6z" p-id="6798"></path></svg>