<?xml version="1.0" standalone="no"?><!DOCTYPE svg PUBLIC "-//W3C//DTD SVG 1.1//EN" "http://www.w3.org/Graphics/SVG/1.1/DTD/svg11.dtd"><svg t="1540277184898" class="icon" style="" viewBox="0 0 1024 1024" version="1.1" xmlns="http://www.w3.org/2000/svg" p-id="8668" xmlns:xlink="http://www.w3.org/1999/xlink" width="200" height="200"><defs><style type="text/css"></style></defs><path d="M983.13755886 940.73047296L769.2774663 726.86941941c63.91890103-73.71541949 102.60079337-169.90684494 102.60079336-275.13419302 0-232.0587044-188.12082246-420.17856587-420.17856586-420.17856587S31.52016692 219.67748299 31.52016692 451.73522639s188.12082246 420.17856587 420.17856587 420.17856587c105.22734808 0 201.41877352-38.68189233 275.13419302-102.60079336l213.86105356 213.86105356c5.43077335 5.43173341 12.93493894 8.79103374 21.22178927 8.79103373 16.57562174 0 30.01282301-13.43720126 30.01282301-30.01282301C991.92859259 953.66445184 988.56929227 946.16124538 983.13755886 940.73047296zM451.6987328 811.8891063c-198.90746091 0-360.15291891-161.24641899-360.15291891-360.1529189S252.79127281 91.58230749 451.6987328 91.58230749s360.15291891 161.24641899 360.15291889 360.1529189S650.60619371 811.8891063 451.6987328 811.8891063z" fill="#B2B2B2" p-id="8669"></path></svg>