<?xml version="1.0" standalone="no"?><!DOCTYPE svg PUBLIC "-//W3C//DTD SVG 1.1//EN" "http://www.w3.org/Graphics/SVG/1.1/DTD/svg11.dtd"><svg t="1540431795067" class="icon" style="" viewBox="0 0 1024 1024" version="1.1" xmlns="http://www.w3.org/2000/svg" p-id="16975" xmlns:xlink="http://www.w3.org/1999/xlink" width="200" height="200"><defs><style type="text/css"></style></defs><path d="M0 0v1024h1024V0H0z m408.826 546.4c-19.738 17.6-43.737 36.274-72 56v263.2c0 11.2-2.538 18.801-7.6 22.801-5.075 4-12.4 6-22 6-10.675 0-18.137-2-22.4-6-4.275-4-6.4-11.601-6.4-22.801V640.8c-13.875 8.538-27.6 16.8-41.2 24.8-13.6 8-27.337 15.476-41.2 22.4-15.475 8-27.475 12-36 12-8.538 0-15.475-4.525-20.8-13.6-5.337-9.062-6.275-17.726-2.8-26 3.462-8.263 10-14.801 19.6-19.601 22.4-11.2 43.725-22.662 64-34.399 20.262-11.726 39.725-23.726 58.4-36V349.6h-50.4a2850.542 2850.542 0 0 1-13.6 68.4c-4.8 22.675-10.4 45.737-16.8 69.2-4.275 16-9.875 27.075-16.8 33.2-6.938 6.137-16.275 7.074-28 2.8-9.075-3.2-14.275-9.062-15.6-17.601-1.337-8.524 0.4-20.524 5.2-36 11.725-36.8 21.462-76.125 29.2-118 7.725-41.862 12.925-82 15.6-120.399 1.062-13.325 3.725-22.925 8-28.8 4.263-5.863 11.725-8.525 22.4-8 12.262 0.537 19.862 4.137 22.8 10.8 2.925 6.675 3.862 16.675 2.8 30a14343.5 14343.5 0 0 1-3.2 28.399c-1.075 9.338-2.138 18.538-3.2 27.601h41.6V160c0-10.662 2.125-18.263 6.4-22.8 4.263-4.525 11.725-6.8 22.4-6.8 9.6 0 16.925 2.274 22 6.8 5.062 4.537 7.6 12.138 7.6 22.8v131.2h62.4c10.662 0 18 2.8 22 8.399 4 5.601 6 12.676 6 21.2 0 9.075-2 16.138-6 21.2-4 5.075-11.338 7.6-22 7.6h-62.4V528c6.4-5.325 12.4-10.525 18-15.6a448.85 448.85 0 0 0 16.4-15.601c19.725-19.725 37.063-21.325 52-4.8 7.463 8 10.262 15.875 8.4 23.6-1.874 7.739-9.476 18.001-22.8 30.801z m69.6 108.8c-8.537-10.125-12.4-18.8-11.6-26s4.662-13.726 11.6-19.601c6.926-5.862 14.125-8.524 21.6-8 7.463 0.538 15.201 5.338 23.201 14.4 15.463 17.6 30.125 35.2 44 52.8a925.003 925.003 0 0 1 39.199 53.601c7.463 11.199 10.801 21.199 10 30-0.799 8.8-4.938 15.862-12.4 21.199-18.137 11.2-32.799 7.726-44-10.399-12.273-19.2-25.6-38-40-56.4-14.399-18.4-28.274-35.6-41.6-51.6z m373.599-61.6h-56V788c0 33.6-7.475 58.8-22.398 75.6-14.938 16.801-41.875 25.2-80.801 25.2-27.199 0-60.801-6.399-100.801-19.2-17.074-5.875-27.199-12.675-30.398-20.399-3.201-7.737-2.676-16.938 1.6-27.601 3.725-9.074 9.861-14.537 18.4-16.399 8.523-1.875 17.6-0.938 27.199 2.8 18.662 7.463 35.199 12.525 49.6 15.2 14.4 2.662 26.662 4 36.801 4 15.463 0 25.861-2.8 31.199-8.4 5.326-5.6 8-18 8-37.2v-188h-278.4c-19.736 0-29.6-10.125-29.6-30.399 0-20.263 9.863-30.4 29.6-30.4h278.4V496c0-13.862 2.4-23.2 7.201-28 4.799-4.8 12.523-7.2 23.199-7.2 10.662 0 18.525 2.275 23.6 6.8 5.062 4.538 7.6 14 7.6 28.4v36.8h56c19.727 0 29.602 10.138 29.602 30.4-0.001 20.275-9.876 30.4-29.603 30.4z m8-144.8h-428c-19.736 0-29.6-10.125-29.6-30.399 0-20.263 9.863-30.4 29.6-30.4h182.4V283.2h-134.4c-19.736 0-29.6-10.125-29.6-30.4 0-20.263 9.863-30.399 29.6-30.399h134.4v-60c0-21.863 10.4-32.801 31.201-32.801 10.662 0 18.799 2.4 24.398 7.2 5.602 4.8 8.4 13.338 8.4 25.601v60h133.6c19.727 0 29.602 10.137 29.602 30.399 0 20.275-9.875 30.4-29.602 30.4h-133.6V388h181.6c19.727 0 29.602 10.138 29.602 30.4 0.001 20.275-9.874 30.4-29.601 30.4z" p-id="16976" fill="#037e25"></path></svg>