<?xml version="1.0" standalone="no"?><!DOCTYPE svg PUBLIC "-//W3C//DTD SVG 1.1//EN" "http://www.w3.org/Graphics/SVG/1.1/DTD/svg11.dtd"><svg t="1540806125106" class="icon" style="" viewBox="0 0 1024 1024" version="1.1" xmlns="http://www.w3.org/2000/svg" p-id="7482" xmlns:xlink="http://www.w3.org/1999/xlink" width="200" height="200"><defs><style type="text/css"></style></defs><path d="M511.63 937.689c-235.249 0-425.926-190.695-425.926-425.922 0-235.267 190.678-425.944 425.926-425.944 235.26 0 425.938 190.677 425.938 425.944 0 235.227-190.677 425.922-425.938 425.922z m0-798.624c-205.825 0-372.686 166.86-372.686 372.702 0 205.82 166.861 372.68 372.686 372.68 205.837 0 372.697-166.859 372.697-372.68 0-205.842-166.859-372.702-372.697-372.702z m226.659 425.943H511.254c-8.022 0-15.109-3.716-19.917-9.457-3.885-4.564-6.321-10.376-6.321-16.797v-0.243c0-0.05-0.016-0.083-0.016-0.135 0-0.051 0.016-0.066 0.016-0.136L485 271.779c0.016-14.497 11.928-26.234 26.631-26.234 14.699 0 26.643 11.755 26.643 26.234l-0.017 239.983h199.998c14.514 0 26.289 11.911 26.271 26.613 0 14.721-11.742 26.627-26.237 26.627v0.006z m0 0" p-id="7483"></path></svg>