<?xml version="1.0" standalone="no"?><!DOCTYPE svg PUBLIC "-//W3C//DTD SVG 1.1//EN" "http://www.w3.org/Graphics/SVG/1.1/DTD/svg11.dtd"><svg t="1540274747985" class="icon" style="" viewBox="0 0 1024 1024" version="1.1" xmlns="http://www.w3.org/2000/svg" p-id="6463" xmlns:xlink="http://www.w3.org/1999/xlink" width="200" height="200"><defs><style type="text/css"></style></defs><path d="M709.347498 640.360645l-42.423418-20.480271 36.571912-29.623248A329.147207 329.147207 0 1 0 173.934708 333.522304a325.490015 325.490015 0 0 0 130.927445 261.854889l36.571912 28.526091-42.057699 21.577428A458.611775 458.611775 0 0 0 51.053085 1024h67.658037a392.416614 392.416614 0 0 1 782.638913 0h67.658037A457.514617 457.514617 0 0 0 709.347498 640.360645z m-208.094179-46.812047A260.757731 260.757731 0 1 1 763.108208 333.522304a261.123451 261.123451 0 0 1-260.757731 260.026294z" p-id="6464" fill="#bfbfbf"></path></svg>